<svg width="25" height="42" viewBox="0 0 25 42" fill="none" xmlns="http://www.w3.org/2000/svg">
<path d="M23.871 21.0007L4 5.00002C4 5.00002 2.34294 15.0189 1.93555 21.5C1.52104 28.0944 2.5 38.5 2.5 38.5L23.871 21.0007Z" fill="#F8F8F8"/>
<path d="M24.4532 21.3113C24.4684 20.7362 24.2537 20.155 23.8269 19.7522L6.05453 1.43873C5.67381 1.03729 5.17377 0.793801 4.59854 0.778569C3.40223 0.74689 2.45759 1.6428 2.42591 2.8392C2.41129 3.39137 2.62676 3.94963 2.98441 4.35045L19.2997 21.1749L2.11688 37.1122C1.7385 37.4937 0.468252 38.9899 0.453023 39.565C0.421342 40.7614 1.31725 41.706 2.51356 41.7377C3.08879 41.753 4.62716 40.5631 5.05157 40.183L23.7453 22.8351C24.194 22.4096 24.4374 21.9095 24.4532 21.3113Z" fill="#13A53D"/>
</svg>
